<?xml version="1.0" encoding="UTF-8"?>
<svg id="icon_text" data-name="icon &amp;amp; text" xmlns="http://www.w3.org/2000/svg" viewBox="0 0 1041.33 1030.87">
  <g id="icon">
    <path d="M128.31,441.48c0-.2-.11-.37-.28-.47-4.37-2.57-5.66-8.42-3.56-12.76,2.01-4.16,5.42-5.55,8.72-5.38,4.66,.26,7.43,2.91,8.49,6.64,1.09,3.77,.43,7.3-2.44,10.21-.27,.27-.55,.48-.78,.65-.14,.11-.22,.27-.22,.44v13.72c0,.14,.05,.27,.15,.37,.45,.49,.9,1.02,1.37,1.49,5.38,5.35,10.77,10.7,16.19,16.05,.86,.86,1.75,1.68,2.64,2.48,6.21,5.52,9.88,12.52,11.86,20.48,.92,3.73,1.42,7.53,1.62,11.4,.06,1.17,.01,2.32,0,3.55,0,.29,.21,.53,.5,.56,.13,.01,.28,.02,.42,.02,2.05,0,4.06,.03,6.11,0,2.41-.07,4.2-1.16,5.15-3.44,3.83-8.85,7.66-17.74,11.46-26.62,2.51-5.85,5.02-11.69,7.53-17.54,0,0,0,0,0,0,.18-.36-.08-.78-.47-.8-.28-.01-.55-.02-.82-.02-8.19,0-16.42,.03-24.61-.03-1.52,0-3.04-.3-4.56-.59-1.49-.3-2.74-1.06-3.83-2.15-4.66-4.69-9.31-9.38-13.97-14.07-2.01-2.01-2.84-4.53-2.84-7.33,0-8.36,0-16.75-.07-25.1,0-1.26-.17-2.54-.56-3.7-1.12-3.17-3.57-4.79-6.84-5.12-1.35-.13-2.74-.13-4.13-.13h-38.25c-.28,0-.52,.21-.55,.5-.02,.23-.05,.48-.05,.73,0,13.38,0,26.76,.03,40.13,0,1.02,.17,2.11,.53,3.04,.89,2.35,2.84,3.27,5.19,3.44,.53,.04,1.14,.12,2.1,.2,.68,.06,2.29,.15,5.13,.16,.7,0,1.63,0,2.73,0,.31,0,.57,.25,.57,.56,0,1.19,0,3.05,0,3.94,0,1.3,0,3.47,0,4.96,0,.3-.24,.55-.54,.56-.72,.02-1.3,.03-1.69,.03-2.86,.03-4.55-.02-5.84-.02-1.22,0-1.39,.01-1.93-.01-3.3-.13-6.54-.66-9.48-2.35-3.96-2.25-6.08-5.78-6.8-10.17-.3-1.72-.3-3.5-.3-5.25-.03-14.3-.03-28.64-.03-42.94,0-1.98,.36-3.8,1.68-5.38,1.26-1.45,2.77-2.31,4.69-2.38,1.85-.07,3.73-.2,5.58-.2,12.49-.03,25-.07,37.49,.03,3.6,.03,7.23,.26,10.7,1.49,5.98,2.15,10.24,7.2,10.57,13.97,.3,5.71,.23,11.43,.3,17.14,.03,3.99,0,8.01,0,12.06,0,.15,.06,.29,.16,.39,4.42,4.48,8.8,8.93,13.25,13.44,.1,.11,.25,.17,.4,.17h1.58c10.01,0,20.05,0,30.06,.03,1.09,0,2.18,.17,3.27,.26,2.87,.26,5.98,3.2,4.56,7.43-.92,2.81-2.15,5.52-3.3,8.26-4.86,11.4-9.78,22.79-14.67,34.19-1.42,3.27-2.77,6.57-4.33,9.78-2.61,5.38-7.07,8.26-12.98,8.89-6.21,.66-12.42,.17-18.63,.3-.08,0-.16-.01-.25-.03-.27-.05-.47-.3-.45-.58,.07-1.41,.18-2.75,.21-4.12,.1-3.4,.33-6.8,.26-10.21-.1-6.44-1.68-12.52-5.22-17.94-1.39-2.11-2.97-4.13-4.72-5.91-6.67-6.8-13.44-13.48-20.15-20.25-.86-.89-1.65-1.95-2.18-3.04-.46-.89-.66-1.98-.69-3.01-.03-5.02-.13-9.97-.26-15.08Z"/>
  </g>
  <g id="nomiqon">
    <path d="M430.81,435.87c0-.58,.47-1.05,1.05-1.05h16.96c.58,0,1.05,.47,1.05,1.05,0,.7,0,1.41,0,2.11,0,.23,0,.46,0,.7,0,.86,.98,1.35,1.67,.84,7.77-5.72,16.44-7.79,25.67-7,9.47,.81,17.87,3.97,23.61,12.27,.39,.56,1.21,.59,1.66,.07,.89-1.05,1.7-1.99,2.5-2.87,4.57-5.21,10.64-7.55,17.23-8.83,8.09-1.49,15.75-.32,23.09,2.77,8.51,3.62,13.19,10.53,15.64,19.15,1.49,5.11,2.02,10.43,2.02,15.75,0,14.17,.47,26.76,.11,46.7,0,.44-.03,1.6-.05,2.5-.01,.57-.48,1.03-1.05,1.03h-18.2c-.58,0-1.05-.47-1.05-1.05,0-1.01,.01-2.37,.03-3.97,.13-14.4,0-28.8,0-43.19,0-2.66-.32-5.43-.96-8.09-.96-4.04-3.3-7.23-6.92-9.47-10.11-6.38-21.28-1.91-25.64,5.43-1.7,2.87-2.13,6.06-2.13,9.36,0,17.4-.11,32.6,0,45.96,.01,1.59,.01,2.96,.01,3.98,0,.58-.47,1.04-1.05,1.04h-18.24c-.58,0-1.05-.46-1.05-1.04,0-.96,0-2.26,0-3.77,.05-14.68-.11-29.36-.11-44.04,0-2.55-.32-5.21-1.06-7.66-2.34-7.87-8.09-11.81-15.75-12.13-7.34-.32-13.62,3.3-17.02,11.17-.96,2.34-1.6,5-1.6,7.55,0,16.27-.28,36.87-.21,44.79,.01,1.64,.02,3.05,.02,4.08,0,.58-.47,1.04-1.05,1.04h-18.36c-.58,0-1.05-.47-1.05-1.05,.09-13.99,.16-27.98,.2-41.96,.04-14.05,.04-28.11,.02-42.16Z"/>
    <path d="M683.59,439.79c0-1.3,0-2.61,0-3.91,0-.58,.47-1.05,1.05-1.05h17.44c.58,0,1.05,.48,1.05,1.05,.02,27.16,.01,44.8,0,56.17v46.35c0,.58,.47,1.05,1.05,1.05,10.73,0,21.46,0,32.19,0,.81,0,1.32,.88,.9,1.58-3.34,5.56-16.12,21.33-22.12,27.3-.66,.66-1.79,.19-1.79-.75v-9.11c0-.58-.47-1.05-1.05-1.05h-19.48c-5.21,0-7.55-2.45-7.66-7.66-.11-11.81,0-23.62,0-35.43h0c0-.86-.98-1.36-1.67-.85-.54,.4-1.03,.78-1.52,1.16-7.13,5.21-15,8.51-23.72,8.3-14.79-.21-26.6-6.81-35-19.15-6.81-10-8.3-21.28-6.7-33.09,1.17-8.09,4.15-15.43,9.15-21.92,6.7-8.62,15.53-13.51,26.07-15.53,10.94-2.13,20.72,.42,29.54,7,.02,.02,.04,.03,.07,.05,.18,.11,.37,.23,.59,.37,.7,.44,1.61-.06,1.61-.88Zm-20.11,63.69c6.49-.43,14.04-3.51,18.3-11.92,3.62-7.13,4.47-14.68,2.13-22.55-2.55-8.62-9.89-16.28-22.02-17.45-7.77-.74-18.72,4.15-22.98,15.32-2.02,5.43-2.66,10.96-1.49,16.7,2.02,10.53,10.64,20.43,26.07,19.89Z"/>
    <path d="M803.07,478.26c.74,22.98-17.45,44.04-44.26,44.36-26.6,.21-45.85-20.96-45.53-45.11,.32-26.07,20.64-44.9,44.9-45,25,0,45.64,20.43,44.9,45.75Zm-20.64,0c0-5.53-1.28-10.85-4.36-15.53-8.3-12.98-24.89-15-35.85-5-9.79,8.94-11.06,25.21-3.4,36.28,5.53,7.98,15.21,11.49,24.15,9.57,11.6-2.45,19.36-12.66,19.47-25.32Z"/>
    <path d="M418.05,478.48c.74,23.09-17.77,44.36-44.79,44.26-24.79,0-44.9-18.94-44.9-44.47-.11-28.09,22.24-45.53,44.26-45.64,24.58-.11,46.17,20.43,45.43,45.85Zm-20-.64c-.14-2.48-.64-6.29-2.45-10.53-1.21-2.84-3.54-8.3-9.41-12.08-3.13-2.02-6.82-3.24-11.02-3.56-9.26-.74-17.13,2.98-21.92,11.28-5.32,9.15-5.53,18.83-.96,28.3,5,10.53,17.55,15.43,28.62,11.7,8.12-2.73,12.39-9.32,13.43-11.06,3.52-5.87,3.75-11.57,3.7-14.05Z"/>
    <path d="M260.51,521.05h-18.25c-.58,0-1.05-.46-1.05-1.04-.1-13.74-.15-27.57-.15-41.48,0-14.31,.05-28.53,.15-42.67,0-.58,.47-1.04,1.05-1.04h17.75c.58,0,1.05,.47,1.05,1.05s0,1.11,0,1.66c0,.18,0,.37,0,.55,0,.81,.88,1.32,1.58,.91,.04-.02,.08-.05,.13-.08,0,0,.89-.52,1.66-.97,11.7-6.92,23.83-7.13,36.07-1.91,7.45,3.19,12.13,9.15,14.79,16.7,1.49,4.26,2.45,8.72,2.45,13.3,0,18,.43,32.05,.43,51.39,0,1,0,1.89,0,2.59,0,.58-.47,1.05-1.05,1.05h-18.66c-.41-.41-.64-.64-1.05-1.05,.08-15.29,0-30.59,0-45.88,0-2.02,0-4.15-.11-6.17-.64-7.98-6.28-13.72-15.11-15.32-5.74-1.06-13.94,1.6-17.98,9.04-1.6,2.98-2.66,6.17-2.66,9.68,0,15.29-.14,25.54,0,44.79,.01,1.55,.01,2.89,0,3.88,0,.58-.47,1.04-1.05,1.04Z"/>
    <path d="M833.86,521.05h-18.31c-.58,0-1.05-.47-1.05-1.05v-84.13c0-.58,.47-1.05,1.05-1.05h17c.58,0,1.05,.47,1.05,1.05,0,.69,0,1.47,0,1.89,0,.17,0,.44,0,.74,0,.83,.91,1.33,1.61,.89,.73-.46,1.42-.9,2.11-1.34,12.98-7.66,26.17-7.34,39.15-.43,6.81,3.72,10.53,10.21,12.77,17.45,1.98,6.41,2.33,14.31,2.34,15.32,0,1.29,.01,2.84,.01,2.84,0,1.31,0,2.28,0,2.53,0,2.84,0,10.05,0,18.44,0,11.22-.04,13.87-.01,22.89,0,1.12,0,2.1,0,2.91,0,.58-.47,1.05-1.05,1.05h-18.47c-.58,0-1.05-.47-1.05-1.05,0-.94,0-2.19,.02-3.65,.13-14.68,0-29.36,0-44.04,0-2.55-.32-5.21-1.06-7.66-2.34-7.45-8.3-11.7-16.28-12.34-7.34-.53-14.47,4.04-17.02,11.06-1.06,2.77-1.7,5.74-1.7,8.72-.13,8.83-.14,17.67-.13,26.5,0,4.91-.05,8.41,.02,17.55,.01,1.5,.03,2.81,.04,3.86,0,.58-.46,1.06-1.05,1.06Z"/>
    <path d="M567.24,435.87c0-.58,.47-1.05,1.05-1.05h9.88c3.73,0,7.45,.01,11.18,0,1.88,0,3.76,0,5.63,0,2.45-.01,2.71-.03,3.4,.03,1.68,.15,4.27,.39,5.97,1.78,2.14,1.75,2.27,4.92,2.32,5.94,0,.14,0,.1,0,2.71v74.72c0,.58-.47,1.05-1.05,1.05h-18.89c-.58,0-1.04-.46-1.05-1.03-.01-1.43-.03-3.08-.04-4.91-.01-1.51-.03-3.33-.03-5.57v-54.38c0-.58-.47-1.05-1.05-1.05-2.27,0-6.09,0-7.67,0-1.93,0-6.08,0-8.61,0-.58,0-1.04-.47-1.04-1.05v-17.2Z"/>
    <path d="M581.67,414.11c-.32-7.87,5.43-13.4,14.15-13.62,7.77-.21,13.51,5.74,13.51,13.4s-6.06,13.83-13.83,13.72c-9.04-.11-14.47-6.7-13.83-13.51Z"/>
  </g>
</svg>