<?xml version="1.0" encoding="UTF-8"?>
<svg id="Solo" xmlns="http://www.w3.org/2000/svg" viewBox="0 0 1045.46 1035.94">
  <g id="icon">
    <path d="M393.39,391.31c-.03-1.11-.65-2.12-1.61-2.68-24.84-14.58-32.16-47.87-20.21-72.51,11.45-23.65,30.78-31.53,49.55-30.59,26.47,1.5,42.23,16.52,48.24,37.73,6.19,21.4,2.44,41.48-13.89,58-1.52,1.52-3.13,2.73-4.41,3.71-.78,.6-1.22,1.52-1.22,2.5v77.96c0,.79,.3,1.55,.83,2.13,2.54,2.77,5.09,5.78,7.8,8.49,30.59,30.41,61.19,60.81,91.97,91.22,4.88,4.88,9.95,9.57,15.02,14.08,35.29,31.35,56.12,71.14,67.38,116.37,5.26,21.21,8.07,42.79,9.2,64.76,.33,6.65,.08,13.16,.01,20.17-.01,1.62,1.21,3,2.83,3.17,.74,.08,1.57,.13,2.41,.13,11.64,0,23.09,.19,34.72,0,13.7-.38,23.84-6.57,29.28-19.52,21.77-50.3,43.55-100.79,65.13-151.28,14.26-33.22,28.53-66.44,42.79-99.67,0-.01,.01-.02,.02-.03,1-2.02-.44-4.42-2.69-4.53-1.6-.08-3.15-.13-4.65-.13-46.55,0-93.29,.19-139.83-.19-8.63,0-17.27-1.69-25.9-3.38-8.45-1.69-15.58-6.01-21.77-12.2-26.47-26.65-52.93-53.31-79.4-79.96-11.45-11.45-16.14-25.71-16.14-41.67,0-47.49,0-95.16-.38-142.65,0-7.13-.94-14.45-3.19-21.02-6.38-18.02-20.27-27.22-38.85-29.09-7.7-.75-15.58-.75-23.46-.75H245.66c-1.62,0-2.98,1.22-3.15,2.82-.14,1.33-.26,2.72-.26,4.12,0,76.02,0,152.03,.19,228.05,0,5.82,.94,12.01,3,17.27,5.07,13.33,16.14,18.58,29.47,19.52,3.02,.21,6.48,.69,11.93,1.13,3.88,.31,12.99,.83,29.18,.94,3.99,.03,9.25,.03,15.49-.05,1.76-.02,3.21,1.39,3.21,3.16,0,6.75-.01,17.36-.01,22.41,0,7.39,0,19.7,0,28.21,0,1.71-1.37,3.11-3.08,3.16-4.07,.11-7.37,.15-9.61,.18-16.27,.19-25.85-.14-33.17-.12-6.9,.02-7.87,.06-10.94-.06-18.77-.75-37.16-3.75-53.87-13.33-22.52-12.76-34.54-32.85-38.67-57.81-1.69-9.76-1.69-19.9-1.69-29.84-.19-81.27-.19-162.73-.19-244.01,0-11.26,2.06-21.59,9.57-30.59,7.13-8.26,15.77-13.14,26.65-13.51,10.51-.38,21.21-1.13,31.72-1.13,70.95-.19,142.09-.38,213.04,.19,20.46,.19,41.11,1.5,60.81,8.45,33.97,12.2,58.19,40.92,60.06,79.4,1.69,32.47,1.31,64.94,1.69,97.41,.18,22.66,0,45.5,0,68.52,0,.83,.33,1.63,.91,2.23,25.1,25.46,50.02,50.76,75.3,76.4,.59,.6,1.41,.94,2.25,.94h9c56.87,0,113.93,0,170.8,.19,6.19,0,12.39,.94,18.58,1.5,16.33,1.5,33.97,18.21,25.9,42.23-5.26,15.95-12.2,31.35-18.77,46.92-27.59,64.76-55.56,129.51-83.34,194.27-8.07,18.58-15.77,37.35-24.59,55.56-14.83,30.59-40.17,46.92-73.76,50.49-35.29,3.75-70.57,.94-105.86,1.69-.44,0-.91-.06-1.42-.15-1.55-.28-2.66-1.69-2.58-3.27,.4-8.02,1.02-15.64,1.19-23.42,.56-19.33,1.88-38.67,1.5-58-.56-36.6-9.57-71.14-29.66-101.92-7.88-12.01-16.89-23.46-26.84-33.6-37.91-38.67-76.39-76.58-114.49-115.06-4.88-5.07-9.38-11.07-12.39-17.27-2.63-5.07-3.75-11.26-3.94-17.08-.18-28.5-.73-56.65-1.46-85.67Z"/>
  </g>
</svg>